<svg width="11" height="11" viewBox="0 0 11 11" fill="none" xmlns="http://www.w3.org/2000/svg">
<path fill-rule="evenodd" clip-rule="evenodd" d="M8.12475 5.99439C7.77388 6.31098 7.33254 6.52423 6.8442 6.58903C6.74166 6.60258 6.63767 6.61211 6.53139 6.61211C5.32738 6.61211 4.33281 5.71062 4.15582 4.53511C4.13752 4.41313 4.12504 4.28925 4.12504 4.16197C4.12504 3.788 4.2099 3.43498 4.35694 3.11776C4.74233 2.28763 5.56968 1.71205 6.53139 1.71205C7.86019 1.71205 8.93754 2.809 8.93754 4.16197C8.93754 4.89193 8.62224 5.54544 8.12475 5.99439ZM4.46882 9.41199C3.13981 9.41199 2.06267 8.31505 2.06267 6.96186C2.06267 6.2319 2.37777 5.57839 2.87526 5.12966C3.29746 6.78673 4.77185 8.01201 6.53138 8.01201C6.56902 8.01201 6.60563 8.00735 6.64307 8.00608C6.25767 8.8362 5.43032 9.41199 4.46882 9.41199ZM6.53138 0.312012C4.66266 0.312012 3.11465 1.69315 2.80871 3.50672C1.55375 4.13312 0.6875 5.44289 0.6875 6.96189C0.6875 9.08824 2.38047 10.812 4.46882 10.812C6.33713 10.812 7.88535 9.43087 8.19129 7.6171C9.44625 6.99069 10.3125 5.68113 10.3125 4.16192C10.3125 2.03558 8.61952 0.312012 6.53138 0.312012Z" fill="#202020"/>
</svg>
