<svg width="75" height="43" viewBox="0 0 75 43" fill="none" xmlns="http://www.w3.org/2000/svg">
<path d="M0.948975 26.2712L9.54419 3.09941C9.93767 2.04167 10.5279 1.26682 11.3149 0.77485C12.1264 0.258283 13.0364 0 14.0447 0C15.0776 0 15.9875 0.245984 16.7745 0.737953C17.5861 1.22992 18.1886 2.00477 18.5821 3.06251L27.2142 26.2712C24.5174 26.8391 22.4189 26.2712 21.3857 23.4116L20.3897 20.552H7.62594L5.56014 26.2712H0.948975ZM8.95396 16.6409H19.0616L14.93 4.57531C14.7333 4.08334 14.4505 3.83736 14.0816 3.83736C13.7619 3.83736 13.5036 4.08334 13.3069 4.57531L8.95396 16.6409Z" fill="#2F2F43"/>
<path d="M37.6279 26.7139C36.6196 26.7139 35.722 26.4679 34.935 25.976C34.148 25.484 33.5578 24.6969 33.1643 23.6145L25.0855 0.442771C28.1671 0.230758 29.912 0.737953 31.0289 3.78662L36.8164 21.8065C37.0131 22.3231 37.2836 22.5814 37.6279 22.5814C37.9968 22.5814 38.2673 22.3231 38.4395 21.8065L45.5222 0.442771H50.1703L42.0915 23.6145C41.7226 24.6477 41.1324 25.4225 40.3208 25.9391C39.5339 26.4556 38.6362 26.7139 37.6279 26.7139Z" fill="#2F2F43"/>
<path d="M52.8868 26.2712V0.442771H61.3714C64.1012 0.442771 66.4744 0.996237 68.491 2.10317C70.5322 3.2101 72.1062 4.7352 73.2129 6.67848C74.3195 8.62176 74.8729 10.8479 74.8729 13.357C74.8729 15.866 74.3195 18.0922 73.2129 20.0354C72.1062 21.9787 70.5322 23.5038 68.491 24.6108C66.4744 25.7177 64.1012 26.2712 61.3714 26.2712H52.8868ZM57.2767 22.3969H61.4083C63.1298 22.3969 64.6791 22.0402 66.0563 21.3269C67.4335 20.5889 68.5156 19.5435 69.3026 18.1906C70.0896 16.8376 70.483 15.2264 70.483 13.357C70.483 11.4875 70.0896 9.87628 69.3026 8.52336C68.5156 7.17045 67.4335 6.13732 66.0563 5.42396C64.6791 4.68601 63.1298 4.31703 61.4083 4.31703H57.2767V22.3969Z" fill="#2F2F43"/>
<path d="M0.754028 36.8676C0.754028 38.6095 1.71926 39.8077 3.22812 39.8077C4.11569 39.8077 4.77027 39.3417 5.09201 38.7315H5.1142C5.1142 38.7315 5.08092 38.8869 5.08092 39.1088V39.6746H6.10162V31.8418H5.03654V34.4712C5.03654 34.682 5.05873 34.8484 5.05873 34.8484H5.03654C4.68151 34.2493 4.00474 33.9276 3.29469 33.9276C1.80801 33.9276 0.754028 35.0814 0.754028 36.8676ZM1.85239 36.8676C1.85239 35.5918 2.58464 34.8706 3.46111 34.8706C4.53728 34.8706 5.05873 35.8469 5.05873 36.8566C5.05873 38.2767 4.27101 38.8758 3.43892 38.8758C2.50697 38.8758 1.85239 38.088 1.85239 36.8676Z" fill="#2F2F43"/>
<path d="M7.96092 32.9291H9.07037V31.8418H7.96092V32.9291ZM7.98311 39.6746H9.05928V34.0607H7.98311V39.6746Z" fill="#2F2F43"/>
<path d="M11.4678 40.6953L11.1128 41.5385C11.6675 41.8158 12.3554 42.0044 13.0322 42.0044C14.4523 42.0044 15.8613 41.2944 15.8613 39.4416V34.0607H14.8295V34.6154C14.8295 34.7153 14.8628 34.7819 14.8628 34.7819H14.8295C14.4745 34.1828 13.7533 33.9276 13.0544 33.9276C11.49 33.9276 10.6025 35.1258 10.6025 36.7456C10.6025 38.3543 11.5455 39.608 13.1098 39.608C13.9197 39.608 14.4634 39.253 14.7962 38.6983H14.8184C14.8184 38.6983 14.7851 38.8758 14.7851 39.0533V39.5082C14.7851 40.6287 13.9863 41.0725 13.01 41.0725C12.4664 41.0725 11.9116 40.9172 11.4678 40.6953ZM11.6897 36.7123C11.6897 35.5696 12.2556 34.8595 13.2208 34.8595C14.0973 34.8595 14.8073 35.2811 14.8073 36.7456C14.8073 38.2101 14.0973 38.6761 13.3206 38.6761C12.311 38.6761 11.6897 37.8773 11.6897 36.7123Z" fill="#2F2F43"/>
<path d="M17.7224 32.9291H18.8319V31.8418H17.7224V32.9291ZM17.7446 39.6746H18.8208V34.0607H17.7446V39.6746Z" fill="#2F2F43"/>
<path d="M20.9298 37.6221C20.9298 39.4971 22.361 39.73 23.0821 39.73C23.2486 39.73 23.3706 39.7079 23.4594 39.6968V38.7426C23.3484 38.7648 23.2818 38.7648 23.2042 38.7648C22.7937 38.7648 22.006 38.6206 22.006 37.5V34.9927H23.3595V34.1162H22.006V32.5186H20.952V34.1162H20.1976V34.9927H20.9298V37.6221Z" fill="#2F2F43"/>
<path d="M24.3207 38.1435C24.3207 39.1975 25.2193 39.8077 26.1957 39.8077C27.0277 39.8077 27.7156 39.3085 28.0374 38.665H28.0595C28.0595 38.665 28.0263 38.8536 28.0263 39.1088V39.6746H29.0359V36.1243C29.0359 34.7042 28.226 33.9276 26.8169 33.9276C26.0292 33.9276 25.1749 34.216 24.7201 34.5933L25.1528 35.381C25.6076 35.0592 26.1735 34.8373 26.7282 34.8373C27.4272 34.8373 27.9597 35.148 27.9597 36.0688V36.1798H27.6712C26.5063 36.1798 24.3207 36.3795 24.3207 38.1435ZM25.3968 38.0548C25.3968 37.023 26.8835 36.9564 27.6823 36.9564H27.9597V37.1672C27.9597 37.9993 27.3939 38.9534 26.4508 38.9534C25.7519 38.9534 25.3968 38.4985 25.3968 38.0548Z" fill="#2F2F43"/>
<path d="M30.8592 38.1324C30.8592 39.5525 31.7468 39.73 32.3681 39.73C32.5234 39.73 32.6454 39.7079 32.7231 39.6968V38.7426C32.6565 38.7537 32.5789 38.7537 32.5345 38.7537C32.2016 38.7537 31.9243 38.6206 31.9243 37.9549V31.8418H30.8592V38.1324Z" fill="#2F2F43"/>
<path d="M36.5685 38.1435C36.5685 39.1975 37.4671 39.8077 38.4435 39.8077C39.2756 39.8077 39.9634 39.3085 40.2852 38.665H40.3074C40.3074 38.665 40.2741 38.8536 40.2741 39.1088V39.6746H41.2837V36.1243C41.2837 34.7042 40.4738 33.9276 39.0648 33.9276C38.2771 33.9276 37.4228 34.216 36.9679 34.5933L37.4006 35.381C37.8555 35.0592 38.4213 34.8373 38.976 34.8373C39.675 34.8373 40.2075 35.148 40.2075 36.0688V36.1798H39.919C38.7541 36.1798 36.5685 36.3795 36.5685 38.1435ZM37.6447 38.0548C37.6447 37.023 39.1313 36.9564 39.9301 36.9564H40.2075V37.1672C40.2075 37.9993 39.6417 38.9534 38.6986 38.9534C37.9997 38.9534 37.6447 38.4985 37.6447 38.0548Z" fill="#2F2F43"/>
<path d="M43.6395 40.6953L43.2845 41.5385C43.8392 41.8158 44.5271 42.0044 45.2039 42.0044C46.624 42.0044 48.033 41.2944 48.033 39.4416V34.0607H47.0012V34.6154C47.0012 34.7153 47.0345 34.7819 47.0345 34.7819H47.0012C46.6462 34.1828 45.925 33.9276 45.2261 33.9276C43.6617 33.9276 42.7742 35.1258 42.7742 36.7456C42.7742 38.3543 43.7172 39.608 45.2815 39.608C46.0914 39.608 46.6351 39.253 46.9679 38.6983H46.9901C46.9901 38.6983 46.9568 38.8758 46.9568 39.0533V39.5082C46.9568 40.6287 46.158 41.0725 45.1817 41.0725C44.6381 41.0725 44.0833 40.9172 43.6395 40.6953ZM43.8614 36.7123C43.8614 35.5696 44.4273 34.8595 45.3925 34.8595C46.269 34.8595 46.979 35.2811 46.979 36.7456C46.979 38.2101 46.269 38.6761 45.4923 38.6761C44.4827 38.6761 43.8614 37.8773 43.8614 36.7123Z" fill="#2F2F43"/>
<path d="M49.5502 36.8676C49.5502 38.5318 50.7706 39.8077 52.5346 39.8077C53.3113 39.8077 54.1655 39.5082 54.7092 39.0089L54.2543 38.2212C53.8105 38.6206 53.2003 38.8758 52.6012 38.8758C51.5916 38.8758 50.7262 38.2212 50.6707 37.0119H54.7536C54.7757 36.8565 54.7979 36.7012 54.7979 36.557C54.7979 35.1147 53.9547 33.9276 52.3682 33.9276C50.7706 33.9276 49.5502 35.0814 49.5502 36.8676ZM50.704 36.2353C50.8593 35.3033 51.5139 34.7597 52.346 34.7597C53.0783 34.7597 53.6774 35.27 53.7107 36.2353H50.704Z" fill="#2F2F43"/>
<path d="M56.3139 39.6746H57.3901V36.9786C57.3901 35.8248 58.1667 34.915 59.2651 34.915C60.1637 34.915 60.3191 35.5363 60.3191 36.324V39.6746H61.3952V36.0799C61.3952 34.6487 60.7961 33.9276 59.4759 33.9276C58.2444 33.9276 57.5565 34.7597 57.3457 35.2478H57.3235C57.3235 35.2478 57.3568 35.0592 57.3568 34.8262V34.0607H56.3139V39.6746Z" fill="#2F2F43"/>
<path d="M62.8546 36.8676C62.8546 38.554 64.0861 39.8077 65.8612 39.8077C66.7377 39.8077 67.592 39.4527 68.1023 38.909L67.6696 38.1213C67.237 38.5762 66.5602 38.8758 65.9389 38.8758C64.774 38.8758 63.953 37.9993 63.953 36.8566C63.953 35.7138 64.774 34.8595 65.9056 34.8595C66.4936 34.8595 67.0816 35.1258 67.4589 35.503L67.9692 34.7486C67.4367 34.1828 66.6046 33.9276 65.8612 33.9276C64.0972 33.9276 62.8546 35.2035 62.8546 36.8676Z" fill="#2F2F43"/>
<path d="M69.1568 40.8395L68.7795 41.6605C68.7795 41.6605 69.2344 42.0044 69.8557 42.0044C70.6434 42.0044 71.3424 41.5607 71.6752 40.6842L74.3157 34.0607H73.1508L71.7862 37.7441C71.6863 38.0326 71.5976 38.4098 71.5976 38.4098H71.5754C71.5754 38.4098 71.4755 38.0104 71.3646 37.733L69.9556 34.0607H68.7463L71.0983 39.608L70.8209 40.2515C70.6101 40.7618 70.244 41.0836 69.8002 41.0836C69.4674 41.0836 69.1568 40.8395 69.1568 40.8395Z" fill="#2F2F43"/>
</svg>
