<svg width="75" height="43" viewBox="0 0 75 43" fill="none" xmlns="http://www.w3.org/2000/svg"><path d="M.949 26.271L9.544 3.1c.394-1.057.984-1.832 1.77-2.324C12.127.258 13.037 0 14.045 0c1.034 0 1.944.246 2.73.738.812.492 1.415 1.267 1.808 2.325l8.632 23.208c-2.697.568-4.795 0-5.828-2.86l-.996-2.859H7.626l-2.066 5.72H.95zm8.005-9.63h10.108L14.93 4.575c-.197-.492-.48-.738-.848-.738-.32 0-.578.246-.775.738L8.954 16.641zm28.674 10.073c-1.008 0-1.906-.246-2.693-.738-.787-.492-1.377-1.28-1.77-2.361L25.084.442c3.082-.212 4.827.295 5.944 3.344l5.787 18.02c.197.516.468.774.812.774.369 0 .64-.258.812-.774L45.522.442h4.648l-8.078 23.171c-.37 1.034-.96 1.808-1.771 2.325-.787.517-1.685.775-2.693.775zm15.259-.443V.443h8.484c2.73 0 5.103.553 7.12 1.66 2.041 1.107 3.615 2.632 4.722 4.575 1.107 1.944 1.66 4.17 1.66 6.679 0 2.509-.553 4.735-1.66 6.678-1.107 1.944-2.68 3.469-4.722 4.576-2.017 1.107-4.39 1.66-7.12 1.66h-8.484zm4.39-3.874h4.131c1.722 0 3.271-.357 4.648-1.07a8.128 8.128 0 003.247-3.136c.787-1.353 1.18-2.965 1.18-4.834 0-1.87-.393-3.48-1.18-4.834a7.88 7.88 0 00-3.247-3.099c-1.377-.738-2.926-1.107-4.648-1.107h-4.131v18.08zM.754 36.868c0 1.741.965 2.94 2.474 2.94.888 0 1.542-.466 1.864-1.077h.022s-.033.156-.033.378v.566H6.1v-7.833H5.038v2.63c0 .21.022.376.022.376h-.022c-.355-.599-1.032-.92-1.742-.92-1.487 0-2.541 1.153-2.541 2.94zm1.098 0c0-1.276.733-1.997 1.61-1.997 1.075 0 1.597.976 1.597 1.986 0 1.42-.788 2.019-1.62 2.019-.932 0-1.587-.788-1.587-2.008zM7.96 32.93h1.11v-1.088H7.96v1.087zm.023 6.745H9.06V34.06H7.983v5.614zm3.485 1.02l-.355.843a4.414 4.414 0 001.92.466c1.42 0 2.828-.71 2.828-2.562V34.06H14.83v.554a.4.4 0 00.034.167h-.034c-.354-.6-1.076-.854-1.775-.854-1.564 0-2.452 1.198-2.452 2.818 0 1.608.944 2.862 2.508 2.862.81 0 1.353-.355 1.686-.91h.022s-.033.178-.033.355v.455c0 1.12-.799 1.564-1.775 1.564a3.555 3.555 0 01-1.542-.377zm.222-3.983c0-1.142.566-1.853 1.53-1.853.877 0 1.587.422 1.587 1.887 0 1.464-.71 1.93-1.486 1.93-1.01 0-1.631-.799-1.631-1.964zm6.032-3.782h1.11v-1.088h-1.11v1.087zm.023 6.745h1.076V34.06h-1.076v5.614zm3.185-2.053c0 1.875 1.431 2.108 2.152 2.108.167 0 .289-.022.377-.033v-.954c-.11.022-.177.022-.255.022-.41 0-1.198-.144-1.198-1.265v-2.507h1.354v-.877h-1.354V32.52h-1.054v1.597h-.754v.877h.732v2.63zm3.39.522c0 1.053.9 1.664 1.876 1.664.832 0 1.52-.5 1.841-1.143h.023s-.034.189-.034.444v.566h1.01v-3.55c0-1.42-.81-2.197-2.22-2.197-.787 0-1.641.288-2.096.665l.433.788c.455-.322 1.02-.544 1.575-.544.7 0 1.232.311 1.232 1.232v.11h-.289c-1.165 0-3.35.2-3.35 1.965zm1.077-.09c0-1.031 1.487-1.098 2.285-1.098h.278v.211c0 .832-.566 1.786-1.51 1.786-.698 0-1.053-.455-1.053-.898zm5.463.078c0 1.42.887 1.598 1.508 1.598.155 0 .277-.022.355-.033v-.954c-.066.01-.144.01-.188.01-.333 0-.61-.132-.61-.798v-6.113h-1.066v6.29zm5.709.012c0 1.053.898 1.664 1.874 1.664.833 0 1.52-.5 1.842-1.143h.022s-.033.189-.033.444v.566h1.01v-3.55c0-1.42-.81-2.197-2.22-2.197-.787 0-1.641.288-2.096.665l.433.788c.454-.322 1.02-.544 1.575-.544.699 0 1.232.311 1.232 1.232v.11h-.289c-1.165 0-3.35.2-3.35 1.965zm1.076-.09c0-1.031 1.486-1.098 2.285-1.098h.278v.211c0 .832-.566 1.786-1.51 1.786-.698 0-1.053-.455-1.053-.898zm5.995 2.641l-.355.843a4.414 4.414 0 001.919.466c1.42 0 2.829-.71 2.829-2.562V34.06h-1.032v.554a.4.4 0 00.034.167H47c-.355-.6-1.076-.854-1.775-.854-1.564 0-2.452 1.198-2.452 2.818 0 1.608.943 2.862 2.508 2.862.81 0 1.353-.355 1.686-.91h.022s-.033.178-.033.355v.455c0 1.12-.799 1.564-1.775 1.564a3.555 3.555 0 01-1.543-.377zm.221-3.983c0-1.142.566-1.853 1.532-1.853.876 0 1.586.422 1.586 1.887 0 1.464-.71 1.93-1.487 1.93-1.01 0-1.63-.799-1.63-1.964zm5.689.156c0 1.664 1.22 2.94 2.985 2.94.776 0 1.63-.3 2.174-.8l-.455-.787c-.444.4-1.054.655-1.653.655-1.01 0-1.875-.655-1.93-1.864h4.083c.022-.156.044-.31.044-.455 0-1.442-.843-2.63-2.43-2.63-1.597 0-2.818 1.154-2.818 2.94zm1.154-.633c.155-.932.81-1.475 1.642-1.475.732 0 1.331.51 1.365 1.475h-3.007zm5.61 3.44h1.076v-2.696c0-1.154.777-2.064 1.875-2.064.899 0 1.054.621 1.054 1.409v3.35h1.076V36.08c0-1.431-.599-2.152-1.92-2.152-1.23 0-1.919.832-2.13 1.32h-.021s.033-.189.033-.422v-.765h-1.043v5.614zm6.541-2.807c0 1.686 1.231 2.94 3.006 2.94.877 0 1.731-.355 2.241-.899l-.432-.788c-.433.455-1.11.755-1.731.755-1.165 0-1.986-.877-1.986-2.02 0-1.142.821-1.997 1.953-1.997.588 0 1.176.267 1.553.644l.51-.754c-.532-.566-1.364-.821-2.108-.821-1.764 0-3.006 1.276-3.006 2.94zm6.302 3.972l-.377.82s.454.344 1.076.344c.787 0 1.486-.443 1.82-1.32l2.64-6.623H73.15l-1.365 3.683c-.1.289-.188.666-.188.666h-.023s-.1-.4-.21-.677l-1.41-3.672h-1.209l2.352 5.547-.277.644c-.21.51-.577.832-1.02.832-.334 0-.644-.245-.644-.245z" fill="#2F2F43"/></svg>